<?xml version="1.0" standalone="no"?>
<!DOCTYPE svg PUBLIC "-//W3C//DTD SVG 20010904//EN"
 "http://www.w3.org/TR/2001/REC-SVG-20010904/DTD/svg10.dtd">
<svg version="1.0" xmlns="http://www.w3.org/2000/svg"
 width="704.000000pt" height="704.000000pt" viewBox="0 0 704.000000 704.000000"
 preserveAspectRatio="xMidYMid meet">
<metadata>
Created by potrace 1.11, written by Peter Selinger 2001-2013
</metadata>
<g transform="translate(0.000000,704.000000) scale(0.100000,-0.100000)"
fill="#000000" stroke="none">
<path d="M0 3520 l0 -3520 3520 0 3520 0 0 3520 0 3520 -3520 0 -3520 0 0
-3520z m2593 3313 c18 -10 34 -19 37 -21 10 -7 -24 -20 -39 -15 -12 4 -13 2
-3 -4 7 -5 17 -25 22 -43 9 -30 7 -37 -17 -62 -15 -15 -30 -28 -35 -28 -10 0
-169 -98 -243 -148 -344 -237 -640 -634 -774 -1038 -70 -210 -92 -339 -98
-579 -4 -165 -2 -234 11 -324 20 -134 14 -168 -9 -53 -4 18 -9 31 -11 29 -3
-3 7 -57 21 -120 86 -385 276 -730 554 -1007 87 -86 286 -250 305 -250 2 0 40
-21 83 -47 237 -141 520 -243 771 -277 39 -6 42 -5 34 11 -11 21 -8 413 3 526
5 49 11 73 16 65 5 -7 9 31 9 90 0 116 -10 146 -62 185 -47 35 -91 47 -190 54
l-88 6 0 63 0 64 640 0 641 0 -3 -67 -3 -68 -70 -1 c-84 -2 -145 -17 -196 -50
-71 -44 -70 -36 -69 -491 0 -223 2 -409 5 -411 9 -9 299 70 425 115 137 50
259 108 390 186 75 44 184 122 216 152 6 5 25 21 43 35 26 20 168 160 216 214
197 218 372 546 444 834 24 97 51 302 51 393 0 39 4 69 10 69 12 0 4 142 -17
295 -8 61 -17 124 -19 140 -10 86 -49 235 -82 320 -15 38 -29 74 -31 80 -2 6
1 6 8 0 10 -10 38 -74 77 -175 29 -78 12 2 -22 95 -44 123 -138 312 -205 413
-93 140 -279 361 -297 355 -4 -2 -7 2 -7 9 0 19 -207 199 -222 193 -8 -2 -12
-1 -9 4 8 13 -21 34 -35 25 -7 -4 -9 -3 -5 4 8 13 -72 69 -186 131 -75 41
-113 71 -89 71 11 0 127 -57 150 -74 7 -6 21 -11 30 -11 9 0 15 -5 14 -11 -1
-7 6 -10 17 -7 11 3 20 0 20 -6 0 -6 7 -11 15 -11 14 0 63 -26 75 -40 3 -4 32
-22 65 -40 69 -39 256 -171 300 -212 17 -15 33 -28 38 -28 4 0 7 -10 7 -22 0
-16 3 -19 9 -10 10 16 227 -195 315 -306 233 -295 392 -647 456 -1012 38 -221
45 -553 16 -751 -18 -118 -64 -313 -95 -403 -12 -33 -21 -62 -21 -65 1 -11 37
67 44 94 4 15 9 25 12 22 6 -6 -16 -88 -28 -101 -4 -6 -8 -22 -8 -37 0 -15 -5
-31 -10 -34 -6 -4 -9 -12 -8 -18 6 -29 -89 -300 -140 -402 -75 -148 -320 -414
-474 -515 -21 -14 -38 -31 -38 -38 0 -7 -4 -10 -10 -7 -5 3 -10 1 -10 -5 0 -6
-4 -9 -9 -6 -5 3 -14 -1 -21 -9 -7 -8 -19 -15 -26 -15 -8 0 -14 -4 -14 -8 0
-5 -19 -17 -42 -28 -24 -10 -63 -33 -87 -51 -46 -35 -84 -47 -41 -13 35 28 20
25 -18 -3 -17 -13 -28 -28 -24 -32 4 -5 1 -5 -5 -1 -15 9 -86 -37 -75 -49 4
-5 1 -5 -6 -1 -7 4 -32 -4 -59 -19 -234 -138 -569 -254 -865 -302 l-107 -17
-3 -265 c-3 -250 -5 -277 -36 -441 -18 -96 -48 -267 -68 -380 -20 -113 -46
-266 -59 -340 -13 -74 -47 -268 -75 -430 -28 -162 -52 -296 -54 -297 -1 -1
-28 150 -60 335 -31 185 -68 398 -81 472 -13 74 -26 149 -29 165 -3 17 -21
125 -41 240 -20 116 -41 239 -46 274 -5 36 -16 94 -24 129 -11 46 -15 127 -15
302 l0 240 -22 4 c-13 3 -57 10 -98 16 -41 6 -130 24 -198 41 -725 177 -1337
658 -1637 1284 -36 77 -75 158 -85 180 -61 129 -127 366 -157 565 -23 154 -23
491 1 644 10 69 13 113 7 119 -6 6 -8 1 -5 -14 5 -21 4 -22 -6 -7 -7 12 -8 24
-2 35 6 10 8 38 7 63 -2 25 0 56 5 70 5 14 18 70 30 125 12 55 28 114 35 130
7 17 16 41 20 55 4 14 21 53 36 88 16 34 29 68 29 75 0 7 4 17 9 23 4 5 24 38
43 74 79 148 181 296 268 391 92 100 164 168 172 162 6 -3 8 -1 4 5 -3 5 10
20 29 32 19 12 38 28 42 35 5 7 17 15 27 17 11 1 31 13 44 25 32 29 82 54 93
47 5 -3 9 0 9 6 0 6 5 8 10 5 18 -11 -1 -26 -23 -20 -18 5 -19 4 -7 -5 13 -11
13 -11 0 -7 -10 3 -16 -2 -16 -13 0 -21 1 -21 81 39 77 57 85 64 61 55 -13 -5
-17 -4 -12 4 5 8 1 10 -10 5 -12 -4 -15 -3 -10 6 4 6 16 9 27 6 11 -4 18 -3
17 2 -5 17 24 53 43 53 11 0 17 5 14 10 -3 6 1 10 10 10 9 0 13 5 10 10 -3 6
-2 10 3 10 5 0 22 13 38 30 16 16 34 30 41 30 6 0 24 10 40 23 47 38 175 100
233 113 73 16 68 16 103 -3z m1959 -150 c2 -5 27 -19 56 -32 29 -14 58 -31 64
-38 16 -20 -2 -15 -47 12 -22 14 -55 31 -72 39 -18 8 -33 17 -33 20 0 9 28 7
32 -1z m92 -32 c-2 -3 -12 3 -22 13 -16 17 -16 18 5 5 12 -7 20 -15 17 -18z
m96 -88 c0 -7 -39 17 -46 28 -3 6 5 3 20 -6 14 -10 26 -19 26 -22z m-2744 -20
c-3 -4 3 -12 15 -18 21 -12 21 -12 -9 -34 -19 -13 -33 -18 -37 -11 -4 6 -1 9
6 8 8 -2 14 8 15 27 2 35 2 35 11 35 3 0 3 -3 -1 -7z m2810 -25 l19 -23 -25
20 c-14 11 -27 21 -29 22 -2 2 0 3 6 3 5 0 18 -10 29 -22z m114 -93 l25 -30
-27 24 c-16 14 -28 29 -28 34 0 6 1 8 3 6 1 -2 13 -17 27 -34z m45 -35 c3 -5
1 -10 -4 -10 -6 0 -11 5 -11 10 0 6 2 10 4 10 3 0 8 -4 11 -10z m66 -67 c13
-16 12 -17 -3 -4 -17 13 -22 21 -14 21 2 0 10 -8 17 -17z m49 -44 c0 -5 -4 -9
-10 -9 -5 0 -10 7 -10 16 0 8 5 12 10 9 6 -3 10 -10 10 -16z m50 -54 c0 -12
-19 -12 -23 0 -4 9 -1 12 9 8 7 -3 14 -7 14 -8z m34 -45 c12 -25 13 -31 3 -20
-8 8 -18 26 -22 40 -9 32 -3 25 19 -20z m39 -50 c3 -11 1 -18 -4 -14 -5 3 -9
12 -9 20 0 20 7 17 13 -6z m79 -94 c7 4 8 2 4 -5 -9 -13 -26 -5 -25 12 0 9 2
8 6 -1 2 -6 10 -9 15 -6z m91 -136 c3 -11 1 -18 -4 -14 -5 3 -9 12 -9 20 0 20
7 17 13 -6z m44 -102 c-3 -8 -6 -5 -6 6 -1 11 2 17 5 13 3 -3 4 -12 1 -19z
m33 -53 c0 -5 -5 -3 -10 5 -5 8 -10 20 -10 25 0 6 5 3 10 -5 5 -8 10 -19 10
-25z m34 -64 c-5 -6 -33 31 -33 44 -1 6 8 -1 19 -15 10 -14 17 -27 14 -29z
m-3997 -1313 c-3 -7 -5 -2 -5 12 0 14 2 19 5 13 2 -7 2 -19 0 -25z m10 -40
c-3 -8 -6 -5 -6 6 -1 11 2 17 5 13 3 -3 4 -12 1 -19z m4470 -410 c-3 -8 -6 -5
-6 6 -1 11 2 17 5 13 3 -3 4 -12 1 -19z"/>
<path d="M2109 6563 c-13 -16 -12 -17 4 -4 16 13 21 21 13 21 -2 0 -10 -8 -17
-17z"/>
<path d="M1869 6383 c-13 -16 -12 -17 4 -4 9 7 17 15 17 17 0 8 -8 3 -21 -13z"/>
<path d="M1833 6365 c0 -8 4 -12 9 -9 5 3 6 10 3 15 -9 13 -12 11 -12 -6z"/>
<path d="M1782 6129 c-19 -30 -11 -32 11 -3 10 13 14 24 10 24 -5 0 -14 -9
-21 -21z"/>
<path d="M1680 6052 c0 -6 5 -14 10 -17 6 -3 10 -12 9 -18 0 -9 -2 -9 -6 1 -9
22 -23 13 -19 -13 3 -13 2 -24 -2 -24 -21 3 -31 -4 -36 -28 -4 -16 -9 -36 -12
-45 -11 -38 15 -15 51 45 21 34 39 64 40 67 1 3 -6 14 -16 24 -11 11 -19 14
-19 8z"/>
<path d="M5501 6014 c0 -11 3 -14 6 -6 3 7 2 16 -1 19 -3 4 -6 -2 -5 -13z"/>
<path d="M1599 5853 c-13 -16 -12 -17 4 -4 9 7 17 15 17 17 0 8 -8 3 -21 -13z"/>
<path d="M1587 5823 c-4 -3 -7 -13 -7 -22 1 -13 3 -13 11 2 11 19 8 33 -4 20z"/>
<path d="M1500 5721 c0 -6 4 -13 10 -16 6 -3 7 1 4 9 -7 18 -14 21 -14 7z"/>
<path d="M1496 5665 c4 -8 8 -15 10 -15 2 0 4 7 4 15 0 8 -4 15 -10 15 -5 0
-7 -7 -4 -15z"/>
<path d="M5591 5394 c0 -11 3 -14 6 -6 3 7 2 16 -1 19 -3 4 -6 -2 -5 -13z"/>
<path d="M5602 5350 c0 -14 2 -19 5 -12 2 6 2 18 0 25 -3 6 -5 1 -5 -13z"/>
<path d="M1305 5280 c3 -5 8 -10 11 -10 2 0 4 5 4 10 0 6 -5 10 -11 10 -5 0
-7 -4 -4 -10z"/>
<path d="M5621 5264 c0 -11 3 -14 6 -6 3 7 2 16 -1 19 -3 4 -6 -2 -5 -13z"/>
<path d="M1310 5234 c0 -8 5 -12 10 -9 6 3 10 10 10 16 0 5 -4 9 -10 9 -5 0
-10 -7 -10 -16z"/>
<path d="M1247 5183 c-3 -4 1 -17 9 -28 10 -13 14 -15 14 -4 0 20 -16 43 -23
32z"/>
<path d="M5641 5144 c0 -11 3 -14 6 -6 3 7 2 16 -1 19 -3 4 -6 -2 -5 -13z"/>
<path d="M1071 5104 c0 -11 3 -14 6 -6 3 7 2 16 -1 19 -3 4 -6 -2 -5 -13z"/>
<path d="M1250 5081 c0 -6 4 -13 10 -16 6 -3 7 1 4 9 -7 18 -14 21 -14 7z"/>
<path d="M1061 5054 c0 -11 3 -14 6 -6 3 7 2 16 -1 19 -3 4 -6 -2 -5 -13z"/>
<path d="M1221 5051 c-16 -10 -2 -44 16 -37 8 3 11 1 8 -4 -9 -15 5 -51 16
-44 5 3 7 15 3 27 -3 12 -3 18 2 14 4 -4 9 -20 10 -35 3 -51 6 -57 14 -28 7
21 4 38 -10 66 -20 40 -39 53 -59 41z"/>
<path d="M1234 4904 c3 -9 6 -18 6 -20 0 -2 7 -4 15 -4 13 0 13 3 3 20 -15 24
-33 27 -24 4z"/>
<path d="M1215 4870 c3 -5 8 -10 11 -10 2 0 4 5 4 10 0 6 -5 10 -11 10 -5 0
-7 -4 -4 -10z"/>
<path d="M1280 4841 c0 -6 5 -13 10 -16 6 -3 10 1 10 9 0 9 -4 16 -10 16 -5 0
-10 -4 -10 -9z"/>
<path d="M1413 4790 c0 -30 2 -43 4 -27 2 15 2 39 0 55 -2 15 -4 2 -4 -28z"/>
<path d="M5802 4790 c0 -14 2 -19 5 -12 2 6 2 18 0 25 -3 6 -5 1 -5 -13z"/>
<path d="M1200 4702 c0 -5 9 -17 20 -27 23 -21 27 -4 4 19 -17 18 -24 20 -24
8z"/>
<path d="M1422 4630 c0 -19 2 -27 5 -17 2 9 2 25 0 35 -3 9 -5 1 -5 -18z"/>
<path d="M1053 4575 c0 -38 2 -53 4 -32 2 20 2 52 0 70 -2 17 -4 1 -4 -38z"/>
<path d="M1195 4631 c-3 -5 -1 -12 5 -16 5 -3 10 1 10 9 0 18 -6 21 -15 7z"/>
<path d="M1072 4585 c0 -16 2 -22 5 -12 2 9 2 23 0 30 -3 6 -5 -1 -5 -18z"/>
<path d="M1152 4538 c-7 -7 -12 -22 -12 -35 0 -14 -5 -21 -13 -17 -10 3 -12
-5 -9 -32 3 -25 0 -41 -10 -48 -12 -9 -11 -13 3 -27 16 -16 17 -13 23 32 4 26
11 51 16 54 5 3 7 12 4 19 -3 7 2 20 10 29 17 17 21 37 8 37 -4 0 -13 -5 -20
-12z"/>
<path d="M1070 4508 c0 -7 -3 -23 -6 -35 -4 -13 -2 -23 3 -23 5 0 10 16 11 35
1 19 -1 35 -3 35 -3 0 -5 -6 -5 -12z"/>
<path d="M1170 4390 c-15 -12 -18 -18 -7 -14 11 4 17 1 17 -10 0 -9 -6 -13
-14 -10 -25 10 -47 -25 -40 -63 5 -25 3 -38 -7 -45 -11 -8 -10 -9 4 -4 11 3
17 0 17 -9 0 -8 9 -15 20 -15 12 0 26 -12 35 -30 9 -17 11 -30 5 -30 -17 0
-11 -30 11 -62 15 -20 20 -38 16 -57 -5 -25 -3 -28 19 -25 20 2 23 0 14 -11
-8 -10 -8 -15 1 -21 7 -4 9 -3 5 4 -3 5 -2 12 3 14 4 1 11 13 15 25 6 17 3 20
-11 17 -27 -7 -23 45 16 195 17 68 31 133 30 145 0 12 -13 -26 -28 -84 -15
-58 -31 -112 -34 -120 -3 -8 -7 -26 -9 -39 -2 -14 -9 -26 -17 -29 -10 -3 -11
2 -6 18 5 16 4 20 -4 15 -12 -7 -8 24 11 74 5 13 7 26 4 28 -2 3 -7 -5 -11
-16 -9 -29 -19 -26 -31 7 -12 30 -11 61 4 130 10 47 7 50 -28 22z"/>
<path d="M1091 4198 c-7 -19 -7 -36 -1 -47 7 -11 9 -12 10 -2 0 11 3 11 15 1
12 -10 15 -7 21 15 4 17 9 23 14 15 5 -9 9 -9 14 -1 10 16 -3 33 -20 27 -8 -3
-14 -1 -14 3 0 5 -6 11 -14 14 -10 4 -18 -5 -25 -25z m29 -9 c0 -11 -4 -17
-10 -14 -5 3 -10 1 -10 -6 0 -7 -3 -10 -6 -7 -6 6 13 48 21 48 3 0 5 -9 5 -21z"/>
<path d="M1316 4174 c-4 -14 -5 -29 -2 -31 3 -3 8 7 12 21 3 15 4 29 1 32 -2
3 -8 -7 -11 -22z"/>
<path d="M1124 4108 c3 -13 6 -26 6 -30 0 -5 4 -8 8 -8 5 0 7 14 4 30 -2 17
-9 30 -14 30 -6 0 -8 -10 -4 -22z"/>
<path d="M1322 4062 c-6 -14 -12 -35 -12 -46 1 -12 8 -2 16 22 17 50 15 64 -4
24z"/>
<path d="M1363 4072 c0 -9 -3 -33 -7 -52 -6 -32 -5 -31 10 8 10 26 13 47 7 53
-5 5 -9 2 -10 -9z"/>
<path d="M1125 4017 c-4 -10 0 -28 10 -43 23 -35 27 -26 10 21 -10 31 -15 36
-20 22z"/>
<path d="M1216 3983 c-6 -14 -5 -15 5 -6 7 7 10 15 7 18 -3 3 -9 -2 -12 -12z"/>
<path d="M1201 3943 c0 -6 -4 -20 -7 -30 -5 -14 -4 -15 5 -7 7 7 11 20 8 30
-3 11 -5 14 -6 7z"/>
<path d="M3416 3877 c3 -10 9 -15 12 -12 3 3 0 11 -7 18 -10 9 -11 8 -5 -6z"/>
<path d="M1200 3759 c0 -18 2 -19 15 -9 15 12 12 30 -6 30 -5 0 -9 -10 -9 -21z"/>
<path d="M1225 3720 c3 -5 8 -10 11 -10 2 0 4 5 4 10 0 6 -5 10 -11 10 -5 0
-7 -4 -4 -10z"/>
<path d="M1965 3010 c-3 -5 -1 -10 4 -10 6 0 11 5 11 10 0 6 -2 10 -4 10 -3 0
-8 -4 -11 -10z"/>
<path d="M2394 2916 c-6 -7 -15 -23 -19 -37 -5 -18 -2 -16 15 10 22 34 24 48
4 27z"/>
<path d="M2336 2845 c3 -7 -4 -15 -15 -18 -12 -3 -21 -11 -21 -17 0 -7 7 -10
16 -6 8 3 13 2 10 -2 -2 -4 2 -16 10 -27 11 -15 14 -16 14 -3 0 9 11 19 25 22
14 4 25 10 25 15 0 5 -11 8 -25 6 -14 -1 -25 2 -25 6 0 5 7 9 15 9 24 0 17 17
-9 22 -16 3 -23 1 -20 -7z"/>
<path d="M2050 2821 c0 -6 4 -13 10 -16 6 -3 7 1 4 9 -7 18 -14 21 -14 7z"/>
<path d="M2470 2805 c-11 -13 -10 -14 4 -9 9 3 16 10 16 15 0 13 -6 11 -20 -6z"/>
<path d="M2545 2730 c3 -5 8 -10 11 -10 2 0 4 5 4 10 0 6 -5 10 -11 10 -5 0
-7 -4 -4 -10z"/>
<path d="M1995 6510 c-3 -5 -1 -10 4 -10 6 0 11 5 11 10 0 6 -2 10 -4 10 -3 0
-8 -4 -11 -10z"/>
</g>
</svg>
